<svg xmlns="http://www.w3.org/2000/svg" xmlns:xlink="http://www.w3.org/1999/xlink" version="1.1" x="0px" y="0px" viewBox="0 0 512 640" style="enable-background:new 0 0 512 512;" xml:space="preserve"><g><g><g><path fill="#ecf0f1" d="M463.229,334H315c-15.99,0-29-13.01-29-29c0-8.254,3.467-15.714,9.02-21H255c-15.991,0-29-13.01-29-29     c0-15.991,13.009-29,29-29h100c11.579,0,21-9.42,21-21s-9.421-21-21-21h-70c-15.99,0-29-13.009-29-29s13.01-29,29-29h10.02     c-5.553-5.286-9.02-12.746-9.02-21c0-15.991,13.01-29,29-29h73.013c0.866,0,1.71,0.281,2.402,0.802     c27.208,20.44,49.749,47.219,65.188,77.442C471.792,185.933,480,220.169,480,256c0,25.834-4.375,51.185-13.005,75.346     C466.427,332.938,464.919,334,463.229,334z M319,280c0,2.209-1.791,4-4,4c-11.579,0-21,9.421-21,21s9.421,21,21,21h145.391     C468.096,303.505,472,279.971,472,256c0-68.128-31.084-130.742-85.329-172H315c-11.579,0-21,9.42-21,21s9.421,21,21,21     c2.209,0,4,1.791,4,4s-1.791,4-4,4h-30c-11.579,0-21,9.42-21,21s9.421,21,21,21h70c15.99,0,29,13.009,29,29s-13.01,29-29,29H255     c-11.58,0-21,9.42-21,21c0,11.579,9.42,21,21,21h60C317.209,276,319,277.791,319,280z"/></g><g><path fill="#ecf0f1" d="M175,414H98.91c-1.075,0-2.104-0.433-2.856-1.199C54.748,370.671,32,314.985,32,256c0-15.735,1.655-31.492,4.919-46.833     c0.393-1.847,2.024-3.167,3.913-3.167H135c15.991,0,29,13.009,29,29c0,8.254-3.466,15.714-9.02,21H165c15.991,0,29,13.01,29,29     s-13.009,29-29,29c-11.58,0-21,9.421-21,21s9.42,21,21,21h10c15.991,0,29,13.01,29,29S190.991,414,175,414z M100.599,406H175     c11.58,0,21-9.421,21-21s-9.42-21-21-21h-10c-15.991,0-29-13.01-29-29s13.009-29,29-29c11.58,0,21-9.421,21-21s-9.42-21-21-21     h-30c-2.209,0-4-1.791-4-4s1.791-4,4-4c11.58,0,21-9.42,21-21s-9.42-21-21-21H44.095C41.377,227.792,40,241.904,40,256     C40,312.319,61.508,365.521,100.599,406z"/></g><g><path fill="#ecf0f1" d="M256,480c-59.833,0-116.083-23.3-158.392-65.608C55.3,372.084,32,315.832,32,256c0-59.833,23.3-116.084,65.608-158.392     C139.916,55.3,196.167,32,256,32c59.833,0,116.084,23.3,158.392,65.608C456.7,139.916,480,196.167,480,256     c0,59.832-23.3,116.084-65.608,158.392C372.084,456.7,315.833,480,256,480z M256,40C136.897,40,40,136.897,40,256     c0,119.103,96.897,216,216,216c119.103,0,216-96.897,216-216C472,136.897,375.103,40,256,40z"/></g></g></g></svg>